<?xml version="1.0" standalone="no"?><!DOCTYPE svg PUBLIC "-//W3C//DTD SVG 1.1//EN" "http://www.w3.org/Graphics/SVG/1.1/DTD/svg11.dtd"><svg t="1500108681751" class="icon" style="" viewBox="0 0 1024 1024" version="1.1" xmlns="http://www.w3.org/2000/svg" p-id="2560" xmlns:xlink="http://www.w3.org/1999/xlink" width="200" height="200"><defs><style type="text/css"></style></defs><path d="M896 0 128 0C57.6 0 0 57.6 0 128l0 768c0 70.4 57.6 128 128 128l768 0c70.4 0 128-57.6 128-128L1024 128C1024 57.6 966.4 0 896 0zM844.8 396.8l-345.6 345.6c-12.8 12.8-25.6 19.2-44.8 19.2-19.2 0-32-6.4-44.8-19.2L243.2 569.6C230.4 556.8 224 537.6 224 524.8c0-19.2 6.4-32 19.2-44.8 25.6-25.6 64-25.6 89.6 0l128 128 300.8-300.8c25.6-25.6 64-25.6 89.6 0 12.8 12.8 19.2 25.6 19.2 44.8C864 364.8 857.6 384 844.8 396.8z" p-id="2561" fill="#d81e06"></path></svg>