<?xml version="1.0" standalone="no"?><!DOCTYPE svg PUBLIC "-//W3C//DTD SVG 1.1//EN" "http://www.w3.org/Graphics/SVG/1.1/DTD/svg11.dtd"><svg t="1500108667255" class="icon" style="" viewBox="0 0 1024 1024" version="1.1" xmlns="http://www.w3.org/2000/svg" p-id="2366" xmlns:xlink="http://www.w3.org/1999/xlink" width="200" height="200"><defs><style type="text/css"></style></defs><path d="M185.473755 928.347609c-51.402115 0-93.225783-41.82162-93.225783-93.219639V180.921561c0-51.399043 41.823668-93.222711 93.225783-93.222711h654.206409c51.398019 0 93.218616 41.823668 93.218615 93.222711v654.205385c0 24.851745-9.705409 48.252644-27.33569 65.878829-17.62721 17.631305-41.029133 27.34081-65.882925 27.34081H185.473755z m0-785.048714c-20.745964 0-37.621642 16.875678-37.621642 37.622666v654.205385c0 20.739821 16.875678 37.611404 37.621642 37.611403h654.206409c20.742893 0 37.613451-16.872606 37.613451-37.611403V180.921561c0-20.746988-16.871582-37.622666-37.613451-37.622666H185.473755z" fill="#bfbfbf" p-id="2367"></path></svg>